<svg width="16" height="9" viewBox="0 0 16 9" fill="none" xmlns="http://www.w3.org/2000/svg">
<path d="M0.134252 0.131784C-0.0286908 0.291523 -0.0435038 0.541488 0.0898128 0.717632L0.134252 0.768096L3.81203 4.37342L0.134252 7.97874C-0.0286908 8.13848 -0.0435038 8.38845 0.0898128 8.56459L0.134252 8.61506C0.297194 8.77479 0.552172 8.78932 0.731849 8.65862L0.783325 8.61506L4.78549 4.69158C4.94844 4.53184 4.96325 4.28187 4.82993 4.10573L4.78549 4.05526L0.783325 0.131784C0.604088 -0.0439282 0.313488 -0.0439282 0.134252 0.131784Z" fill="#3E8283" fill-opacity="0.4"/>
<path d="M5.62644 0.131784C5.4635 0.291523 5.44868 0.541488 5.582 0.717632L5.62644 0.768096L9.30422 4.37342L5.62644 7.97874C5.4635 8.13848 5.44868 8.38845 5.582 8.56459L5.62644 8.61506C5.78938 8.77479 6.04436 8.78932 6.22404 8.65862L6.27551 8.61506L10.2777 4.69158C10.4406 4.53184 10.4554 4.28187 10.3221 4.10573L10.2777 4.05526L6.27551 0.131784C6.09628 -0.0439282 5.80568 -0.0439282 5.62644 0.131784Z" fill="#3E8283" fill-opacity="0.6"/>
<path d="M11.1196 0.131784C10.9567 0.291523 10.9418 0.541488 11.0752 0.717632L11.1196 0.768096L14.7974 4.37342L11.1196 7.97874C10.9567 8.13848 10.9418 8.38845 11.0752 8.56459L11.1196 8.61506C11.2825 8.77479 11.5375 8.78932 11.7172 8.65862L11.7687 8.61506L15.7708 4.69158C15.9338 4.53184 15.9486 4.28187 15.8153 4.10573L15.7708 4.05526L11.7687 0.131784C11.5894 -0.0439282 11.2988 -0.0439282 11.1196 0.131784Z" fill="#3E8283"/>
</svg>
