<svg width="20" height="20" viewBox="0 0 20 20" fill="none" xmlns="http://www.w3.org/2000/svg">
<path d="M18.3333 9.99998C18.3333 13.1427 18.3333 14.714 17.357 15.6903C16.3807 16.6666 14.8093 16.6666 11.6666 16.6666H8.33329C5.1906 16.6666 3.61925 16.6666 2.64294 15.6903C1.66663 14.714 1.66663 13.1427 1.66663 9.99998C1.66663 6.85728 1.66663 5.28593 2.64294 4.30962C3.61925 3.33331 5.1906 3.33331 8.33329 3.33331H11.6666C14.8093 3.33331 16.3807 3.33331 17.357 4.30962C17.9013 4.85394 18.1421 5.58322 18.2487 6.66665" stroke="#3E8283" stroke-width="1.5" stroke-linecap="round"/>
<path d="M15 6.66669L13.2009 8.16592C11.6704 9.44136 10.9051 10.0791 10 10.0791C9.45892 10.0791 8.96782 9.85119 8.33333 9.39539M5 6.66669L5.75 7.29169L6.5 7.91669" stroke="#3E8283" stroke-width="1.5" stroke-linecap="round"/>
</svg>
