<svg width="20" height="20" viewBox="0 0 20 20" fill="none" xmlns="http://www.w3.org/2000/svg">
<g clip-path="url(#clip0_40_9646)">
<path d="M7.50004 13.3333C7.50004 13.7936 7.12694 14.1667 6.66671 14.1667C6.20647 14.1667 5.83337 13.7936 5.83337 13.3333C5.83337 12.8731 6.20647 12.5 6.66671 12.5C7.12694 12.5 7.50004 12.8731 7.50004 13.3333Z" fill="#3E8283"/>
<path d="M10.8334 13.3333C10.8334 13.7936 10.4603 14.1667 10 14.1667C9.5398 14.1667 9.16671 13.7936 9.16671 13.3333C9.16671 12.8731 9.5398 12.5 10 12.5C10.4603 12.5 10.8334 12.8731 10.8334 13.3333Z" fill="#3E8283"/>
<path d="M14.1667 13.3333C14.1667 13.7936 13.7936 14.1667 13.3334 14.1667C12.8731 14.1667 12.5 13.7936 12.5 13.3333C12.5 12.8731 12.8731 12.5 13.3334 12.5C13.7936 12.5 14.1667 12.8731 14.1667 13.3333Z" fill="#3E8283"/>
<path d="M9.16663 18.3333H6.66663C4.3096 18.3333 3.13109 18.3333 2.39886 17.6011C1.66663 16.8688 1.66663 15.6903 1.66663 13.3333C1.66663 10.9763 1.66663 9.79778 2.39886 9.06555C3.13109 8.33331 4.3096 8.33331 6.66663 8.33331H13.3333C15.6903 8.33331 16.8688 8.33331 17.6011 9.06555C18.3333 9.79778 18.3333 10.9763 18.3333 13.3333C18.3333 15.6903 18.3333 16.8688 17.6011 17.6011C16.8688 18.3333 15.6903 18.3333 13.3333 18.3333H12.5" stroke="#3E8283" stroke-width="1.5" stroke-linecap="round"/>
<path d="M5 8.33335V6.66669C5 6.38276 5.02367 6.10436 5.06913 5.83335M14.8425 5.41669C14.2874 3.26015 12.3298 1.66669 10 1.66669C8.51917 1.66669 7.18869 2.31044 6.27316 3.33335" stroke="#3E8283" stroke-width="1.5" stroke-linecap="round"/>
</g>
<defs>
<clipPath id="clip0_40_9646">
<rect width="20" height="20" fill="white"/>
</clipPath>
</defs>
</svg>
