<svg width="20" height="20" viewBox="0 0 20 20" fill="none" xmlns="http://www.w3.org/2000/svg">
<path d="M3.33883 6.61089C3.27855 8.201 3.68098 10.9014 6.38979 13.6102C7.0433 14.2637 7.69632 14.783 8.33337 15.1939M4.61488 4.11434C5.77567 2.95355 7.62769 3.10951 8.3647 4.43012L8.90554 5.39923C9.39363 6.2738 9.19769 7.42109 8.42896 8.18982C8.42896 8.18982 7.49652 9.12227 9.18714 10.8129C10.8777 12.5035 11.8102 11.5711 11.8102 11.5711C12.5789 10.8023 13.7262 10.6064 14.6008 11.0945L15.5699 11.6353C16.8905 12.3723 17.0465 14.2243 15.8857 15.3851C15.1882 16.0826 14.3337 16.6254 13.3891 16.6612C12.7108 16.6869 11.8303 16.6284 10.8334 16.3425" stroke="#3E8283" stroke-width="1.5" stroke-linecap="round"/>
</svg>
